<mxfile host="app.diagrams.net" modified="2024-05-14T22:51:22.597Z" agent="Mozilla/5.0 (Windows NT 10.0; Win64; x64) AppleWebKit/537.36 (KHTML, like Gecko) Chrome/124.0.0.0 Safari/537.36" etag="xchC9sRLpve0LSAWb1-O" version="24.4.0" type="google" pages="3">
  <diagram name="MusicGroups" id="HbAexcM7MHJw9lcpIYi7">
    <mxGraphModel dx="1013" dy="1124" grid="0" gridSize="10" guides="1" tooltips="1" connect="1" arrows="1" fold="1" page="0" pageScale="1" pageWidth="827" pageHeight="1169" math="0" shadow="0">
      <root>
        <mxCell id="0" />
        <mxCell id="1" parent="0" />
        <mxCell id="VHGlAweUsNOydbgrIQLt-1" style="edgeStyle=none;curved=1;rounded=0;orthogonalLoop=1;jettySize=auto;html=1;exitX=0;exitY=1;exitDx=0;exitDy=0;fontSize=12;startSize=8;endSize=8;" edge="1" parent="1" source="VHGlAweUsNOydbgrIQLt-2" target="VHGlAweUsNOydbgrIQLt-4">
          <mxGeometry relative="1" as="geometry" />
        </mxCell>
        <mxCell id="VHGlAweUsNOydbgrIQLt-2" value="&lt;font style=&quot;font-size: 16px;&quot;&gt;group 1&lt;/font&gt;" style="ellipse;whiteSpace=wrap;html=1;aspect=fixed;" vertex="1" parent="1">
          <mxGeometry x="154" y="15" width="80" height="80" as="geometry" />
        </mxCell>
        <mxCell id="VHGlAweUsNOydbgrIQLt-3" style="edgeStyle=none;curved=1;rounded=0;orthogonalLoop=1;jettySize=auto;html=1;exitX=0.5;exitY=1;exitDx=0;exitDy=0;fontSize=12;startSize=8;endSize=8;" edge="1" parent="1" source="VHGlAweUsNOydbgrIQLt-4" target="VHGlAweUsNOydbgrIQLt-18">
          <mxGeometry relative="1" as="geometry" />
        </mxCell>
        <mxCell id="VHGlAweUsNOydbgrIQLt-4" value="&lt;font style=&quot;font-size: 16px;&quot;&gt;group 2&lt;/font&gt;" style="ellipse;whiteSpace=wrap;html=1;aspect=fixed;" vertex="1" parent="1">
          <mxGeometry x="39" y="-8" width="80" height="80" as="geometry" />
        </mxCell>
        <mxCell id="VHGlAweUsNOydbgrIQLt-5" style="edgeStyle=none;curved=1;rounded=0;orthogonalLoop=1;jettySize=auto;html=1;exitX=0.5;exitY=0;exitDx=0;exitDy=0;fontSize=12;startSize=8;endSize=8;" edge="1" parent="1" source="VHGlAweUsNOydbgrIQLt-7" target="VHGlAweUsNOydbgrIQLt-2">
          <mxGeometry relative="1" as="geometry" />
        </mxCell>
        <mxCell id="VHGlAweUsNOydbgrIQLt-6" style="edgeStyle=none;curved=1;rounded=0;orthogonalLoop=1;jettySize=auto;html=1;exitX=1;exitY=0.5;exitDx=0;exitDy=0;fontSize=12;startSize=8;endSize=8;" edge="1" parent="1" source="VHGlAweUsNOydbgrIQLt-7" target="VHGlAweUsNOydbgrIQLt-14">
          <mxGeometry relative="1" as="geometry" />
        </mxCell>
        <mxCell id="VHGlAweUsNOydbgrIQLt-7" value="&lt;font style=&quot;font-size: 16px;&quot;&gt;group 3&lt;/font&gt;" style="ellipse;whiteSpace=wrap;html=1;aspect=fixed;" vertex="1" parent="1">
          <mxGeometry x="127" y="139" width="80" height="80" as="geometry" />
        </mxCell>
        <mxCell id="VHGlAweUsNOydbgrIQLt-8" style="edgeStyle=none;curved=1;rounded=0;orthogonalLoop=1;jettySize=auto;html=1;exitX=1;exitY=0;exitDx=0;exitDy=0;fontSize=12;startSize=8;endSize=8;" edge="1" parent="1" source="VHGlAweUsNOydbgrIQLt-9" target="VHGlAweUsNOydbgrIQLt-4">
          <mxGeometry relative="1" as="geometry" />
        </mxCell>
        <mxCell id="VHGlAweUsNOydbgrIQLt-9" value="&lt;font style=&quot;font-size: 16px;&quot;&gt;group 4&lt;/font&gt;" style="ellipse;whiteSpace=wrap;html=1;aspect=fixed;" vertex="1" parent="1">
          <mxGeometry x="-60" y="40" width="80" height="80" as="geometry" />
        </mxCell>
        <mxCell id="VHGlAweUsNOydbgrIQLt-10" style="edgeStyle=none;curved=1;rounded=0;orthogonalLoop=1;jettySize=auto;html=1;exitX=0.413;exitY=0.02;exitDx=0;exitDy=0;entryX=0.5;entryY=1;entryDx=0;entryDy=0;fontSize=12;startSize=8;endSize=8;exitPerimeter=0;" edge="1" parent="1" source="VHGlAweUsNOydbgrIQLt-11" target="VHGlAweUsNOydbgrIQLt-9">
          <mxGeometry relative="1" as="geometry" />
        </mxCell>
        <mxCell id="VHGlAweUsNOydbgrIQLt-11" value="&lt;font style=&quot;font-size: 16px;&quot;&gt;group 5&lt;/font&gt;" style="ellipse;whiteSpace=wrap;html=1;aspect=fixed;" vertex="1" parent="1">
          <mxGeometry x="-50" y="160" width="80" height="80" as="geometry" />
        </mxCell>
        <mxCell id="VHGlAweUsNOydbgrIQLt-12" style="edgeStyle=none;curved=1;rounded=0;orthogonalLoop=1;jettySize=auto;html=1;fontSize=12;startSize=8;endSize=8;" edge="1" parent="1" source="VHGlAweUsNOydbgrIQLt-14" target="VHGlAweUsNOydbgrIQLt-15">
          <mxGeometry relative="1" as="geometry" />
        </mxCell>
        <mxCell id="VHGlAweUsNOydbgrIQLt-13" style="edgeStyle=none;curved=1;rounded=0;orthogonalLoop=1;jettySize=auto;html=1;entryX=1;entryY=0;entryDx=0;entryDy=0;fontSize=12;startSize=8;endSize=8;" edge="1" parent="1" source="VHGlAweUsNOydbgrIQLt-14" target="VHGlAweUsNOydbgrIQLt-17">
          <mxGeometry relative="1" as="geometry" />
        </mxCell>
        <mxCell id="VHGlAweUsNOydbgrIQLt-14" value="&lt;font style=&quot;font-size: 16px;&quot;&gt;group 6&lt;/font&gt;" style="ellipse;whiteSpace=wrap;html=1;aspect=fixed;" vertex="1" parent="1">
          <mxGeometry x="287" y="139" width="80" height="80" as="geometry" />
        </mxCell>
        <mxCell id="VHGlAweUsNOydbgrIQLt-15" value="&lt;font style=&quot;font-size: 16px;&quot;&gt;group 7&lt;/font&gt;" style="ellipse;whiteSpace=wrap;html=1;aspect=fixed;" vertex="1" parent="1">
          <mxGeometry x="238" y="37" width="80" height="80" as="geometry" />
        </mxCell>
        <mxCell id="VHGlAweUsNOydbgrIQLt-16" style="edgeStyle=none;curved=1;rounded=0;orthogonalLoop=1;jettySize=auto;html=1;exitX=0;exitY=0;exitDx=0;exitDy=0;entryX=1;entryY=1;entryDx=0;entryDy=0;fontSize=12;startSize=8;endSize=8;" edge="1" parent="1" source="VHGlAweUsNOydbgrIQLt-17" target="VHGlAweUsNOydbgrIQLt-7">
          <mxGeometry relative="1" as="geometry" />
        </mxCell>
        <mxCell id="VHGlAweUsNOydbgrIQLt-17" value="&lt;font style=&quot;font-size: 16px;&quot;&gt;group 8&lt;/font&gt;" style="ellipse;whiteSpace=wrap;html=1;aspect=fixed;" vertex="1" parent="1">
          <mxGeometry x="207" y="250" width="80" height="80" as="geometry" />
        </mxCell>
        <mxCell id="VHGlAweUsNOydbgrIQLt-18" value="&lt;font style=&quot;font-size: 16px;&quot;&gt;group 9&lt;/font&gt;" style="ellipse;whiteSpace=wrap;html=1;aspect=fixed;" vertex="1" parent="1">
          <mxGeometry x="39" y="120" width="80" height="80" as="geometry" />
        </mxCell>
        <mxCell id="VHGlAweUsNOydbgrIQLt-19" style="edgeStyle=none;curved=1;rounded=0;orthogonalLoop=1;jettySize=auto;html=1;fontSize=12;startSize=8;endSize=8;exitX=0;exitY=0;exitDx=0;exitDy=0;" edge="1" parent="1" source="VHGlAweUsNOydbgrIQLt-20" target="VHGlAweUsNOydbgrIQLt-11">
          <mxGeometry relative="1" as="geometry">
            <mxPoint x="70" y="270" as="sourcePoint" />
          </mxGeometry>
        </mxCell>
        <mxCell id="VHGlAweUsNOydbgrIQLt-20" value="&lt;font style=&quot;font-size: 16px;&quot;&gt;group 10&lt;/font&gt;" style="ellipse;whiteSpace=wrap;html=1;aspect=fixed;" vertex="1" parent="1">
          <mxGeometry x="30" y="250" width="80" height="80" as="geometry" />
        </mxCell>
      </root>
    </mxGraphModel>
  </diagram>
  <diagram id="j3Mf69ZjBRnwVwu_mg7w" name="Albums">
    <mxGraphModel dx="1944" dy="479" grid="0" gridSize="10" guides="1" tooltips="1" connect="1" arrows="1" fold="1" page="0" pageScale="1" pageWidth="827" pageHeight="1169" math="0" shadow="0">
      <root>
        <mxCell id="0" />
        <mxCell id="1" parent="0" />
        <mxCell id="mT679bfQqJR1JjXP3QUH-1" value="&lt;span style=&quot;font-size: 16px;&quot;&gt;album 1&lt;/span&gt;" style="ellipse;whiteSpace=wrap;html=1;aspect=fixed;" vertex="1" parent="1">
          <mxGeometry x="-680" y="512" width="80" height="80" as="geometry" />
        </mxCell>
        <mxCell id="mT679bfQqJR1JjXP3QUH-2" value="&lt;span style=&quot;font-size: 16px;&quot;&gt;album 2&lt;/span&gt;" style="ellipse;whiteSpace=wrap;html=1;aspect=fixed;" vertex="1" parent="1">
          <mxGeometry x="-460" y="516" width="80" height="80" as="geometry" />
        </mxCell>
        <mxCell id="mT679bfQqJR1JjXP3QUH-3" value="&lt;span style=&quot;font-size: 16px;&quot;&gt;album 3&lt;/span&gt;" style="ellipse;whiteSpace=wrap;html=1;aspect=fixed;" vertex="1" parent="1">
          <mxGeometry x="-287" y="523" width="80" height="80" as="geometry" />
        </mxCell>
        <mxCell id="mT679bfQqJR1JjXP3QUH-4" value="&lt;span style=&quot;font-size: 16px;&quot;&gt;album 4&lt;/span&gt;" style="ellipse;whiteSpace=wrap;html=1;aspect=fixed;" vertex="1" parent="1">
          <mxGeometry x="31" y="527" width="80" height="80" as="geometry" />
        </mxCell>
        <mxCell id="mT679bfQqJR1JjXP3QUH-5" value="&lt;span style=&quot;font-size: 16px;&quot;&gt;album 9&lt;/span&gt;" style="ellipse;whiteSpace=wrap;html=1;aspect=fixed;" vertex="1" parent="1">
          <mxGeometry x="-867" y="512" width="80" height="80" as="geometry" />
        </mxCell>
        <mxCell id="mT679bfQqJR1JjXP3QUH-6" style="edgeStyle=none;curved=1;rounded=0;orthogonalLoop=1;jettySize=auto;html=1;exitX=0.5;exitY=0;exitDx=0;exitDy=0;entryX=0.5;entryY=1;entryDx=0;entryDy=0;fontSize=12;startSize=8;endSize=8;" edge="1" parent="1" source="mT679bfQqJR1JjXP3QUH-8" target="mT679bfQqJR1JjXP3QUH-1">
          <mxGeometry relative="1" as="geometry" />
        </mxCell>
        <mxCell id="mT679bfQqJR1JjXP3QUH-7" style="edgeStyle=none;curved=1;rounded=0;orthogonalLoop=1;jettySize=auto;html=1;exitX=0.5;exitY=0;exitDx=0;exitDy=0;fontSize=12;startSize=8;endSize=8;entryX=0.5;entryY=1;entryDx=0;entryDy=0;" edge="1" parent="1" source="mT679bfQqJR1JjXP3QUH-8" target="mT679bfQqJR1JjXP3QUH-5">
          <mxGeometry relative="1" as="geometry" />
        </mxCell>
        <mxCell id="mT679bfQqJR1JjXP3QUH-8" value="&lt;span style=&quot;font-size: 16px;&quot;&gt;group 1&lt;/span&gt;" style="whiteSpace=wrap;html=1;aspect=fixed;" vertex="1" parent="1">
          <mxGeometry x="-794" y="663" width="80" height="80" as="geometry" />
        </mxCell>
        <mxCell id="mT679bfQqJR1JjXP3QUH-9" style="edgeStyle=none;curved=1;rounded=0;orthogonalLoop=1;jettySize=auto;html=1;exitX=0.5;exitY=0;exitDx=0;exitDy=0;entryX=0.5;entryY=1;entryDx=0;entryDy=0;fontSize=12;startSize=8;endSize=8;" edge="1" parent="1" source="mT679bfQqJR1JjXP3QUH-10" target="mT679bfQqJR1JjXP3QUH-2">
          <mxGeometry relative="1" as="geometry" />
        </mxCell>
        <mxCell id="mT679bfQqJR1JjXP3QUH-10" value="&lt;span style=&quot;font-size: 16px;&quot;&gt;group 2&lt;/span&gt;" style="whiteSpace=wrap;html=1;aspect=fixed;" vertex="1" parent="1">
          <mxGeometry x="-460" y="663" width="80" height="80" as="geometry" />
        </mxCell>
        <mxCell id="mT679bfQqJR1JjXP3QUH-11" style="edgeStyle=none;curved=1;rounded=0;orthogonalLoop=1;jettySize=auto;html=1;exitX=0.5;exitY=0;exitDx=0;exitDy=0;entryX=0.5;entryY=1;entryDx=0;entryDy=0;fontSize=12;startSize=8;endSize=8;" edge="1" parent="1" source="mT679bfQqJR1JjXP3QUH-12" target="mT679bfQqJR1JjXP3QUH-3">
          <mxGeometry relative="1" as="geometry" />
        </mxCell>
        <mxCell id="mT679bfQqJR1JjXP3QUH-12" value="&lt;span style=&quot;font-size: 16px;&quot;&gt;group 3&lt;/span&gt;" style="whiteSpace=wrap;html=1;aspect=fixed;" vertex="1" parent="1">
          <mxGeometry x="-322" y="658" width="80" height="80" as="geometry" />
        </mxCell>
        <mxCell id="mT679bfQqJR1JjXP3QUH-13" style="edgeStyle=none;curved=1;rounded=0;orthogonalLoop=1;jettySize=auto;html=1;exitX=0.5;exitY=0;exitDx=0;exitDy=0;entryX=0.5;entryY=1;entryDx=0;entryDy=0;fontSize=12;startSize=8;endSize=8;" edge="1" parent="1" source="mT679bfQqJR1JjXP3QUH-14" target="mT679bfQqJR1JjXP3QUH-3">
          <mxGeometry relative="1" as="geometry" />
        </mxCell>
        <mxCell id="mT679bfQqJR1JjXP3QUH-14" value="&lt;span style=&quot;font-size: 16px;&quot;&gt;group 4&lt;/span&gt;" style="whiteSpace=wrap;html=1;aspect=fixed;" vertex="1" parent="1">
          <mxGeometry x="-236" y="658" width="80" height="80" as="geometry" />
        </mxCell>
        <mxCell id="mT679bfQqJR1JjXP3QUH-15" style="edgeStyle=none;curved=1;rounded=0;orthogonalLoop=1;jettySize=auto;html=1;exitX=0.5;exitY=0;exitDx=0;exitDy=0;entryX=0.5;entryY=1;entryDx=0;entryDy=0;fontSize=12;startSize=8;endSize=8;" edge="1" parent="1" source="mT679bfQqJR1JjXP3QUH-16" target="mT679bfQqJR1JjXP3QUH-1">
          <mxGeometry relative="1" as="geometry" />
        </mxCell>
        <mxCell id="mT679bfQqJR1JjXP3QUH-16" value="&lt;span style=&quot;font-size: 16px;&quot;&gt;group 5&lt;/span&gt;" style="whiteSpace=wrap;html=1;aspect=fixed;" vertex="1" parent="1">
          <mxGeometry x="-680" y="663" width="80" height="80" as="geometry" />
        </mxCell>
        <mxCell id="mT679bfQqJR1JjXP3QUH-17" style="edgeStyle=none;curved=1;rounded=0;orthogonalLoop=1;jettySize=auto;html=1;exitX=0.5;exitY=0;exitDx=0;exitDy=0;entryX=0.5;entryY=1;entryDx=0;entryDy=0;fontSize=12;startSize=8;endSize=8;" edge="1" parent="1" source="mT679bfQqJR1JjXP3QUH-18" target="mT679bfQqJR1JjXP3QUH-4">
          <mxGeometry relative="1" as="geometry" />
        </mxCell>
        <mxCell id="mT679bfQqJR1JjXP3QUH-18" value="&lt;span style=&quot;font-size: 16px;&quot;&gt;group 6&lt;/span&gt;" style="whiteSpace=wrap;html=1;aspect=fixed;" vertex="1" parent="1">
          <mxGeometry x="-110" y="663" width="80" height="80" as="geometry" />
        </mxCell>
        <mxCell id="mT679bfQqJR1JjXP3QUH-19" style="edgeStyle=none;curved=1;rounded=0;orthogonalLoop=1;jettySize=auto;html=1;exitX=0.5;exitY=0;exitDx=0;exitDy=0;fontSize=12;startSize=8;endSize=8;" edge="1" parent="1" source="mT679bfQqJR1JjXP3QUH-20" target="mT679bfQqJR1JjXP3QUH-4">
          <mxGeometry relative="1" as="geometry" />
        </mxCell>
        <mxCell id="mT679bfQqJR1JjXP3QUH-20" value="&lt;span style=&quot;font-size: 16px;&quot;&gt;group 7&lt;/span&gt;" style="whiteSpace=wrap;html=1;aspect=fixed;" vertex="1" parent="1">
          <mxGeometry x="31" y="663" width="80" height="80" as="geometry" />
        </mxCell>
        <mxCell id="mT679bfQqJR1JjXP3QUH-21" style="edgeStyle=none;curved=1;rounded=0;orthogonalLoop=1;jettySize=auto;html=1;exitX=0.5;exitY=0;exitDx=0;exitDy=0;entryX=0.5;entryY=1;entryDx=0;entryDy=0;fontSize=12;startSize=8;endSize=8;" edge="1" parent="1" source="mT679bfQqJR1JjXP3QUH-22" target="mT679bfQqJR1JjXP3QUH-1">
          <mxGeometry relative="1" as="geometry" />
        </mxCell>
        <mxCell id="mT679bfQqJR1JjXP3QUH-22" value="&lt;span style=&quot;font-size: 16px;&quot;&gt;group 8&lt;/span&gt;" style="whiteSpace=wrap;html=1;aspect=fixed;" vertex="1" parent="1">
          <mxGeometry x="-560" y="663" width="80" height="80" as="geometry" />
        </mxCell>
        <mxCell id="mT679bfQqJR1JjXP3QUH-23" style="edgeStyle=none;curved=1;rounded=0;orthogonalLoop=1;jettySize=auto;html=1;exitX=0.5;exitY=0;exitDx=0;exitDy=0;entryX=0.5;entryY=1;entryDx=0;entryDy=0;fontSize=12;startSize=8;endSize=8;" edge="1" parent="1" source="mT679bfQqJR1JjXP3QUH-24" target="mT679bfQqJR1JjXP3QUH-4">
          <mxGeometry relative="1" as="geometry" />
        </mxCell>
        <mxCell id="mT679bfQqJR1JjXP3QUH-24" value="&lt;span style=&quot;font-size: 16px;&quot;&gt;group 9&lt;/span&gt;" style="whiteSpace=wrap;html=1;aspect=fixed;" vertex="1" parent="1">
          <mxGeometry x="170" y="663" width="80" height="80" as="geometry" />
        </mxCell>
        <mxCell id="mT679bfQqJR1JjXP3QUH-25" style="edgeStyle=none;curved=1;rounded=0;orthogonalLoop=1;jettySize=auto;html=1;exitX=0.5;exitY=0;exitDx=0;exitDy=0;fontSize=12;startSize=8;endSize=8;entryX=0.5;entryY=1;entryDx=0;entryDy=0;" edge="1" parent="1" source="mT679bfQqJR1JjXP3QUH-26" target="mT679bfQqJR1JjXP3QUH-5">
          <mxGeometry relative="1" as="geometry" />
        </mxCell>
        <mxCell id="mT679bfQqJR1JjXP3QUH-26" value="&lt;span style=&quot;font-size: 16px;&quot;&gt;group 10&lt;/span&gt;" style="whiteSpace=wrap;html=1;aspect=fixed;" vertex="1" parent="1">
          <mxGeometry x="-908" y="663" width="80" height="80" as="geometry" />
        </mxCell>
      </root>
    </mxGraphModel>
  </diagram>
  <diagram id="y3DKFqUTL_6wq-Mp_NGu" name="Страница — 3">
    <mxGraphModel dx="2903" dy="1138" grid="0" gridSize="10" guides="1" tooltips="1" connect="1" arrows="1" fold="1" page="0" pageScale="1" pageWidth="827" pageHeight="1169" math="0" shadow="0">
      <root>
        <mxCell id="0" />
        <mxCell id="1" parent="0" />
        <mxCell id="0tTaCAh1TfuFVgQjXHMZ-1" value="&lt;span style=&quot;font-size: 16px;&quot;&gt;genre 1&lt;/span&gt;" style="ellipse;whiteSpace=wrap;html=1;aspect=fixed;" vertex="1" parent="1">
          <mxGeometry x="-522" y="528" width="80" height="80" as="geometry" />
        </mxCell>
        <mxCell id="0tTaCAh1TfuFVgQjXHMZ-2" value="&lt;span style=&quot;font-size: 16px;&quot;&gt;genre 6&lt;/span&gt;" style="ellipse;whiteSpace=wrap;html=1;aspect=fixed;" vertex="1" parent="1">
          <mxGeometry x="-1113" y="534" width="80" height="80" as="geometry" />
        </mxCell>
        <mxCell id="0tTaCAh1TfuFVgQjXHMZ-3" value="&lt;span style=&quot;font-size: 16px;&quot;&gt;genre 3&lt;/span&gt;" style="ellipse;whiteSpace=wrap;html=1;aspect=fixed;" vertex="1" parent="1">
          <mxGeometry x="-638" y="531" width="80" height="80" as="geometry" />
        </mxCell>
        <mxCell id="0tTaCAh1TfuFVgQjXHMZ-4" value="&lt;span style=&quot;font-size: 16px;&quot;&gt;genre 2&lt;/span&gt;" style="ellipse;whiteSpace=wrap;html=1;aspect=fixed;" vertex="1" parent="1">
          <mxGeometry x="-908" y="527" width="80" height="80" as="geometry" />
        </mxCell>
        <mxCell id="0tTaCAh1TfuFVgQjXHMZ-5" style="edgeStyle=none;curved=1;rounded=0;orthogonalLoop=1;jettySize=auto;html=1;exitX=0.5;exitY=0;exitDx=0;exitDy=0;entryX=0.5;entryY=1;entryDx=0;entryDy=0;fontSize=12;startSize=8;endSize=8;" edge="1" parent="1" source="0tTaCAh1TfuFVgQjXHMZ-6" target="0tTaCAh1TfuFVgQjXHMZ-24">
          <mxGeometry relative="1" as="geometry" />
        </mxCell>
        <mxCell id="0tTaCAh1TfuFVgQjXHMZ-6" value="&lt;span style=&quot;font-size: 16px;&quot;&gt;album 3&lt;/span&gt;" style="whiteSpace=wrap;html=1;aspect=fixed;" vertex="1" parent="1">
          <mxGeometry x="-756" y="667" width="80" height="80" as="geometry" />
        </mxCell>
        <mxCell id="0tTaCAh1TfuFVgQjXHMZ-7" style="edgeStyle=none;curved=1;rounded=0;orthogonalLoop=1;jettySize=auto;html=1;exitX=0.5;exitY=0;exitDx=0;exitDy=0;entryX=0.5;entryY=1;entryDx=0;entryDy=0;fontSize=12;startSize=8;endSize=8;" edge="1" parent="1" source="0tTaCAh1TfuFVgQjXHMZ-9" target="0tTaCAh1TfuFVgQjXHMZ-2">
          <mxGeometry relative="1" as="geometry" />
        </mxCell>
        <mxCell id="0tTaCAh1TfuFVgQjXHMZ-8" style="edgeStyle=none;curved=1;rounded=0;orthogonalLoop=1;jettySize=auto;html=1;exitX=0.5;exitY=0;exitDx=0;exitDy=0;entryX=0.5;entryY=1;entryDx=0;entryDy=0;fontSize=12;startSize=8;endSize=8;" edge="1" parent="1" source="0tTaCAh1TfuFVgQjXHMZ-9" target="0tTaCAh1TfuFVgQjXHMZ-26">
          <mxGeometry relative="1" as="geometry" />
        </mxCell>
        <mxCell id="0tTaCAh1TfuFVgQjXHMZ-9" value="&lt;span style=&quot;font-size: 16px;&quot;&gt;album 1&lt;/span&gt;" style="whiteSpace=wrap;html=1;aspect=fixed;" vertex="1" parent="1">
          <mxGeometry x="-1113" y="663" width="80" height="80" as="geometry" />
        </mxCell>
        <mxCell id="0tTaCAh1TfuFVgQjXHMZ-10" style="edgeStyle=none;curved=1;rounded=0;orthogonalLoop=1;jettySize=auto;html=1;exitX=0.5;exitY=0;exitDx=0;exitDy=0;entryX=0.5;entryY=1;entryDx=0;entryDy=0;fontSize=12;startSize=8;endSize=8;" edge="1" parent="1" source="0tTaCAh1TfuFVgQjXHMZ-11" target="0tTaCAh1TfuFVgQjXHMZ-25">
          <mxGeometry relative="1" as="geometry" />
        </mxCell>
        <mxCell id="0tTaCAh1TfuFVgQjXHMZ-11" value="&lt;span style=&quot;font-size: 16px;&quot;&gt;album 6&lt;/span&gt;" style="whiteSpace=wrap;html=1;aspect=fixed;" vertex="1" parent="1">
          <mxGeometry x="-1360" y="667" width="80" height="80" as="geometry" />
        </mxCell>
        <mxCell id="0tTaCAh1TfuFVgQjXHMZ-12" style="edgeStyle=none;curved=1;rounded=0;orthogonalLoop=1;jettySize=auto;html=1;exitX=0.5;exitY=0;exitDx=0;exitDy=0;entryX=1;entryY=1;entryDx=0;entryDy=0;fontSize=12;startSize=8;endSize=8;" edge="1" parent="1" source="0tTaCAh1TfuFVgQjXHMZ-13" target="0tTaCAh1TfuFVgQjXHMZ-4">
          <mxGeometry relative="1" as="geometry" />
        </mxCell>
        <mxCell id="0tTaCAh1TfuFVgQjXHMZ-13" value="&lt;span style=&quot;font-size: 16px;&quot;&gt;album 7&lt;/span&gt;" style="whiteSpace=wrap;html=1;aspect=fixed;" vertex="1" parent="1">
          <mxGeometry x="-852" y="667" width="80" height="80" as="geometry" />
        </mxCell>
        <mxCell id="0tTaCAh1TfuFVgQjXHMZ-14" style="edgeStyle=none;curved=1;rounded=0;orthogonalLoop=1;jettySize=auto;html=1;exitX=0.5;exitY=0;exitDx=0;exitDy=0;fontSize=12;startSize=8;endSize=8;" edge="1" parent="1" source="0tTaCAh1TfuFVgQjXHMZ-15" target="0tTaCAh1TfuFVgQjXHMZ-3">
          <mxGeometry relative="1" as="geometry" />
        </mxCell>
        <mxCell id="0tTaCAh1TfuFVgQjXHMZ-15" value="&lt;span style=&quot;font-size: 16px;&quot;&gt;album 4&lt;/span&gt;" style="whiteSpace=wrap;html=1;aspect=fixed;" vertex="1" parent="1">
          <mxGeometry x="-642" y="667" width="80" height="80" as="geometry" />
        </mxCell>
        <mxCell id="0tTaCAh1TfuFVgQjXHMZ-16" style="edgeStyle=none;curved=1;rounded=0;orthogonalLoop=1;jettySize=auto;html=1;exitX=0.5;exitY=0;exitDx=0;exitDy=0;entryX=0.5;entryY=1;entryDx=0;entryDy=0;fontSize=12;startSize=8;endSize=8;" edge="1" parent="1" source="0tTaCAh1TfuFVgQjXHMZ-17" target="0tTaCAh1TfuFVgQjXHMZ-27">
          <mxGeometry relative="1" as="geometry" />
        </mxCell>
        <mxCell id="0tTaCAh1TfuFVgQjXHMZ-17" value="&lt;span style=&quot;font-size: 16px;&quot;&gt;album 9&lt;/span&gt;" style="whiteSpace=wrap;html=1;aspect=fixed;" vertex="1" parent="1">
          <mxGeometry x="-410" y="666" width="80" height="80" as="geometry" />
        </mxCell>
        <mxCell id="0tTaCAh1TfuFVgQjXHMZ-18" style="edgeStyle=none;curved=1;rounded=0;orthogonalLoop=1;jettySize=auto;html=1;exitX=0.5;exitY=0;exitDx=0;exitDy=0;entryX=0.5;entryY=1;entryDx=0;entryDy=0;fontSize=12;startSize=8;endSize=8;" edge="1" parent="1" source="0tTaCAh1TfuFVgQjXHMZ-19" target="0tTaCAh1TfuFVgQjXHMZ-1">
          <mxGeometry relative="1" as="geometry" />
        </mxCell>
        <mxCell id="0tTaCAh1TfuFVgQjXHMZ-19" value="&lt;span style=&quot;font-size: 16px;&quot;&gt;album 5&lt;/span&gt;" style="whiteSpace=wrap;html=1;aspect=fixed;" vertex="1" parent="1">
          <mxGeometry x="-522" y="667" width="80" height="80" as="geometry" />
        </mxCell>
        <mxCell id="0tTaCAh1TfuFVgQjXHMZ-20" style="edgeStyle=none;curved=1;rounded=0;orthogonalLoop=1;jettySize=auto;html=1;exitX=0.5;exitY=0;exitDx=0;exitDy=0;entryX=0.5;entryY=1;entryDx=0;entryDy=0;fontSize=12;startSize=8;endSize=8;" edge="1" parent="1" source="0tTaCAh1TfuFVgQjXHMZ-21" target="0tTaCAh1TfuFVgQjXHMZ-26">
          <mxGeometry relative="1" as="geometry" />
        </mxCell>
        <mxCell id="0tTaCAh1TfuFVgQjXHMZ-21" value="&lt;span style=&quot;font-size: 16px;&quot;&gt;album 10&lt;/span&gt;" style="whiteSpace=wrap;html=1;aspect=fixed;" vertex="1" parent="1">
          <mxGeometry x="-1209" y="663" width="80" height="80" as="geometry" />
        </mxCell>
        <mxCell id="0tTaCAh1TfuFVgQjXHMZ-22" style="edgeStyle=none;curved=1;rounded=0;orthogonalLoop=1;jettySize=auto;html=1;exitX=0.5;exitY=0;exitDx=0;exitDy=0;fontSize=12;startSize=8;endSize=8;entryX=0;entryY=1;entryDx=0;entryDy=0;" edge="1" parent="1" source="0tTaCAh1TfuFVgQjXHMZ-23" target="0tTaCAh1TfuFVgQjXHMZ-4">
          <mxGeometry relative="1" as="geometry" />
        </mxCell>
        <mxCell id="0tTaCAh1TfuFVgQjXHMZ-23" value="&lt;span style=&quot;font-size: 16px;&quot;&gt;album 2&lt;/span&gt;" style="whiteSpace=wrap;html=1;aspect=fixed;" vertex="1" parent="1">
          <mxGeometry x="-963" y="669" width="80" height="80" as="geometry" />
        </mxCell>
        <mxCell id="0tTaCAh1TfuFVgQjXHMZ-24" value="&lt;span style=&quot;font-size: 16px;&quot;&gt;genre 5&lt;/span&gt;" style="ellipse;whiteSpace=wrap;html=1;aspect=fixed;" vertex="1" parent="1">
          <mxGeometry x="-754" y="527" width="80" height="80" as="geometry" />
        </mxCell>
        <mxCell id="0tTaCAh1TfuFVgQjXHMZ-25" value="&lt;span style=&quot;font-size: 16px;&quot;&gt;genre 4&lt;/span&gt;" style="ellipse;whiteSpace=wrap;html=1;aspect=fixed;" vertex="1" parent="1">
          <mxGeometry x="-1360" y="534" width="80" height="80" as="geometry" />
        </mxCell>
        <mxCell id="0tTaCAh1TfuFVgQjXHMZ-26" value="&lt;span style=&quot;font-size: 16px;&quot;&gt;genre 9&lt;/span&gt;" style="ellipse;whiteSpace=wrap;html=1;aspect=fixed;" vertex="1" parent="1">
          <mxGeometry x="-1209" y="536" width="80" height="80" as="geometry" />
        </mxCell>
        <mxCell id="0tTaCAh1TfuFVgQjXHMZ-27" value="&lt;span style=&quot;font-size: 16px;&quot;&gt;genre 8&lt;/span&gt;" style="ellipse;whiteSpace=wrap;html=1;aspect=fixed;" vertex="1" parent="1">
          <mxGeometry x="-410" y="527" width="80" height="80" as="geometry" />
        </mxCell>
        <mxCell id="0tTaCAh1TfuFVgQjXHMZ-28" style="edgeStyle=none;curved=1;rounded=0;orthogonalLoop=1;jettySize=auto;html=1;exitX=0.5;exitY=0;exitDx=0;exitDy=0;entryX=0.5;entryY=1;entryDx=0;entryDy=0;fontSize=12;startSize=8;endSize=8;" edge="1" parent="1" source="0tTaCAh1TfuFVgQjXHMZ-29" target="0tTaCAh1TfuFVgQjXHMZ-30">
          <mxGeometry relative="1" as="geometry" />
        </mxCell>
        <mxCell id="0tTaCAh1TfuFVgQjXHMZ-29" value="&lt;span style=&quot;font-size: 16px;&quot;&gt;album 8&lt;/span&gt;" style="whiteSpace=wrap;html=1;aspect=fixed;" vertex="1" parent="1">
          <mxGeometry x="-298" y="665" width="80" height="80" as="geometry" />
        </mxCell>
        <mxCell id="0tTaCAh1TfuFVgQjXHMZ-30" value="&lt;span style=&quot;font-size: 16px;&quot;&gt;genre 7&lt;/span&gt;" style="ellipse;whiteSpace=wrap;html=1;aspect=fixed;" vertex="1" parent="1">
          <mxGeometry x="-298" y="527" width="80" height="80" as="geometry" />
        </mxCell>
      </root>
    </mxGraphModel>
  </diagram>
</mxfile>
